<?xml version="1.0" encoding="utf-8"?>
<!-- Generator: Adobe Illustrator 16.0.4, SVG Export Plug-In . SVG Version: 6.00 Build 0)  -->
<!DOCTYPE svg PUBLIC "-//W3C//DTD SVG 1.1//EN" "http://www.w3.org/Graphics/SVG/1.1/DTD/svg11.dtd">
<svg version="1.1" id="Layer_1" xmlns="http://www.w3.org/2000/svg" xmlns:xlink="http://www.w3.org/1999/xlink" x="0px" y="0px"
	 width="83px" height="26px" viewBox="0 0 83 26" enable-background="new 0 0 83 26" xml:space="preserve">
<g>
	<path fill="#FFFFFF" d="M16.984,22.265c0.005,1.923-1.591,3.513-3.574,3.444c-1.763-0.063-3.344-1.497-3.322-3.495
		c0.023-1.88,1.541-3.421,3.496-3.397C15.504,18.839,16.984,20.395,16.984,22.265"/>
	<path fill="#FFFFFF" d="M13.549,9.571c1.838-0.025,3.438,1.503,3.435,3.45c-0.002,1.882-1.513,3.465-3.494,3.444
		c-1.893-0.02-3.416-1.557-3.4-3.478C10.104,11,11.744,9.534,13.549,9.571"/>
	<path fill="#FFFFFF" d="M7.102,22.255c0.032,1.869-1.535,3.496-3.517,3.454c-1.837-0.037-3.391-1.543-3.377-3.477
		c0.014-1.863,1.53-3.44,3.492-3.419C5.677,18.835,7.129,20.47,7.102,22.255"/>
	<path fill="#FFFFFF" d="M13.517,7.215c-1.878,0-3.469-1.539-3.429-3.521c0.04-1.853,1.515-3.382,3.459-3.375
		c1.986,0.006,3.442,1.608,3.437,3.453C16.978,5.693,15.44,7.219,13.517,7.215"/>
	<path fill="#FFFFFF" d="M7.102,13.014c0.03,1.804-1.434,3.424-3.394,3.449c-1.984,0.023-3.523-1.582-3.5-3.498
		c0.027-1.93,1.641-3.431,3.51-3.397C5.557,9.599,7.126,11.124,7.102,13.014"/>
	<path fill="#FFFFFF" d="M3.65,7.215C1.775,7.218,0.239,5.704,0.211,3.821c-0.026-1.89,1.466-3.5,3.446-3.5
		c2.003-0.003,3.506,1.658,3.446,3.556C7.048,5.666,5.575,7.223,3.65,7.215"/>
	<path fill="#FFFFFF" d="M23.428,9.573c1.791-0.027,3.439,1.436,3.434,3.449c-0.003,1.945-1.559,3.445-3.451,3.445
		c-1.92-0.002-3.443-1.551-3.443-3.452C19.968,11.052,21.585,9.534,23.428,9.573"/>
	<path fill="#FFFFFF" d="M23.42,7.215c-1.879,0.014-3.447-1.511-3.452-3.439c-0.004-1.871,1.473-3.457,3.448-3.457
		c1.927,0,3.445,1.522,3.445,3.444C26.865,5.755,25.254,7.223,23.42,7.215"/>
	<path fill="#FFFFFF" d="M19.968,22.257c0.001-1.896,1.533-3.473,3.505-3.443c1.866,0.032,3.387,1.517,3.388,3.447
		c0.004,1.995-1.637,3.512-3.57,3.445C21.478,25.648,19.969,24.169,19.968,22.257"/>
	<path fill="#FFFFFF" d="M36.987,0.235h-7.418v15.164h3.884V4.117h3.53c2.021,0.021,3.669,1.688,3.669,3.712v7.569h3.883V7.829
		C44.535,3.642,41.149,0.235,36.987,0.235"/>
	<path fill="#FFFFFF" d="M58.739,0.235H51.32v15.164h3.883V4.117h3.526c2.025,0.021,3.674,1.688,3.674,3.712v7.569h3.88V7.829
		C66.283,3.642,62.903,0.235,58.739,0.235"/>
	<rect x="45.938" y="0.284" fill="#FFFFFF" width="3.884" height="15.115"/>
	<path fill="#FFFFFF" d="M82.619,7.559c0-4.187-3.002-7.544-7.55-7.544c-4.577,0-7.96,3.036-7.96,7.782v0.118
		c0,4.659,3.267,7.695,8.049,7.695c2.243,0,4.372-0.684,6.322-2.716l-2.535-2.445c-1.02,0.974-2.067,1.447-3.587,1.447
		c-2.303,0-3.816-1.151-3.905-2.92H82.56C82.619,8.294,82.619,7.559,82.619,7.559 M71.513,6.113
		c0.116-1.384,1.661-2.473,3.557-2.473c1.749,0,3.179,1.119,3.179,2.473H71.513z"/>
	<path opacity="0.75" fill="#FFFFFF" d="M30.567,22.965c-0.73,0-1.318,0.593-1.318,1.323c0,0.726,0.588,1.32,1.318,1.32
		c0.728,0,1.32-0.595,1.32-1.32C31.887,23.56,31.295,22.965,30.567,22.965"/>
	<path opacity="0.75" fill="#FFFFFF" d="M36.326,19.331c0.729,0,1.276,0.319,1.726,1.009l0.18,0.277l2.059-1.223l-0.213-0.302
		c-0.936-1.361-2.166-2.023-3.752-2.023c-1.718,0-2.794,0.752-3.397,1.381c-0.771,0.81-1.217,1.92-1.217,3.043
		c0,1.128,0.446,2.237,1.217,3.045c1.092,1.139,2.45,1.378,3.397,1.378c1.528,0,2.97-0.78,3.762-2.031l0.19-0.299l-2.049-1.218
		L38.05,22.65c-0.425,0.67-1.007,1.009-1.724,1.009c-1.233,0-2.163-0.933-2.163-2.169C34.165,20.26,35.093,19.331,36.326,19.331"/>
	<path opacity="0.75" fill="#FFFFFF" d="M44.914,17.068c-1.72,0-2.799,0.75-3.398,1.38c-0.774,0.809-1.215,1.921-1.215,3.044
		c0,1.128,0.44,2.237,1.215,3.044c1.09,1.14,2.45,1.378,3.398,1.378c1.718,0,2.797-0.748,3.397-1.378
		c0.771-0.807,1.218-1.916,1.218-3.044c0-1.123-0.446-2.235-1.218-3.044C47.221,17.312,45.861,17.068,44.914,17.068 M44.914,23.661
		c-1.234,0-2.167-0.934-2.167-2.169c0-1.232,0.933-2.163,2.167-2.163c1.233,0,2.163,0.931,2.163,2.163
		C47.077,22.728,46.147,23.661,44.914,23.661"/>
	<path opacity="0.75" fill="#FFFFFF" d="M63.896,23.269c-0.729,0-1.32,0.591-1.32,1.319c0,0.731,0.591,1.321,1.32,1.321
		c0.728,0,1.32-0.59,1.32-1.321C65.216,23.861,64.623,23.269,63.896,23.269"/>
	<path opacity="0.75" fill="#FFFFFF" d="M71.457,17.739c-0.562-0.427-1.314-0.671-2.146-0.671c-2.656,0-4.438,2.29-4.438,4.424
		c0,1.104,0.411,2.204,1.142,3.02c0.805,0.903,1.949,1.402,3.218,1.402c0.83,0,1.621-0.26,2.226-0.705v0.5h2.354v-8.43h-2.354
		V17.739L71.457,17.739z M69.438,23.661c-1.169,0-2.119-0.973-2.119-2.169c0-1.194,0.95-2.163,2.119-2.163
		c1.128,0,2.085,0.989,2.085,2.163S70.565,23.661,69.438,23.661"/>
	<path opacity="0.75" fill="#FFFFFF" d="M79.995,17.281v4.677c0,0.913-0.66,1.606-1.526,1.606c-0.869,0-1.527-0.688-1.527-1.606
		v-4.677H74.59v4.82c0,1.111,0.425,2.107,1.189,2.809c0.717,0.646,1.67,1.006,2.689,1.006c1.021,0,1.975-0.359,2.686-1.006
		c0.771-0.701,1.194-1.697,1.194-2.809v-4.82H79.995z"/>
	<path opacity="0.75" fill="#FFFFFF" d="M61.2,17.987c-0.581-0.59-1.471-0.919-2.386-0.919c-0.848,0-1.862,0.432-2.271,1.043
		c-0.381-0.685-1.313-1.043-2.217-1.043c-0.718,0-1.477,0.35-1.896,0.679v-0.466h-2.357v8.43h2.357v-5.182
		c0.002-0.696,0.701-1.103,1.259-1.103c0.698,0,1.257,0.434,1.257,1.332v4.952h2.353v-4.952c0-0.961,0.537-1.332,1.245-1.332
		c0.559,0,1.247,0.444,1.247,1.11v5.174h2.354v-5.189C62.145,19.493,61.816,18.62,61.2,17.987"/>
</g>
</svg>
