<?xml version="1.0" encoding="utf-8"?>
<!-- Generator: Adobe Illustrator 19.0.0, SVG Export Plug-In . SVG Version: 6.00 Build 0)  -->
<svg version="1.1" id="Layer_1" xmlns="http://www.w3.org/2000/svg" xmlns:xlink="http://www.w3.org/1999/xlink" x="0px" y="0px"
	 width="141.4px" height="22.1px" viewBox="-234 378 141.4 22.1" style="enable-background:new -234 378 141.4 22.1;"
	 xml:space="preserve">
<style type="text/css">
	.st0{fill:#1439A7;}
</style>
<polygon class="st0" points="-167.1,399.8 -176.1,387.4 -176.1,399.8 -181.6,399.8 -181.6,378.3 -175.9,378.3 -167.3,390.1 
	-167.3,378.3 -161.7,378.3 -161.7,399.8 "/>
<polygon class="st0" points="-158.5,399.8 -158.5,378.3 -142.8,378.3 -142.8,383.1 -153,383.1 -153,386.5 -143,386.5 -143,391.3 
	-153,391.3 -153,394.9 -142.8,394.9 -142.8,399.8 "/>
<polygon class="st0" points="-122.6,399.8 -125.8,386.3 -129.1,399.8 -134.9,399.8 -141.1,378.3 -134.9,378.3 -131.6,392.6 
	-128,378.3 -123.7,378.3 -120.1,392.6 -116.8,378.3 -110.6,378.3 -116.7,399.8 "/>
<path class="st0" d="M-101.6,400.1c-2.2,0-4-0.3-5.6-0.9c-1.5-0.6-2.8-1.4-3.9-2.5l2.9-4.1c0.8,0.8,1.7,1.4,2.9,2
	c1.2,0.6,2.5,0.8,3.9,0.8c1,0,1.7-0.2,2.2-0.5c0.5-0.3,0.8-0.8,0.8-1.3c0-0.5-0.3-0.9-0.9-1.1c-0.6-0.2-1.4-0.5-2.2-0.7
	c-0.9-0.2-1.9-0.4-2.9-0.7c-1.1-0.2-2-0.6-2.9-1.1c-0.9-0.5-1.6-1.2-2.2-2c-0.6-0.8-0.9-1.9-0.9-3.3c0-0.9,0.2-1.8,0.6-2.6
	c0.4-0.8,0.9-1.5,1.6-2.2c0.7-0.6,1.6-1.1,2.7-1.5c1.1-0.4,2.3-0.6,3.6-0.6c3.5,0,6.4,1,8.7,3l-3,4c-0.9-0.7-1.9-1.3-3-1.7
	c-1.1-0.4-2.2-0.5-3.3-0.5c-0.8,0-1.4,0.1-1.8,0.4c-0.4,0.3-0.5,0.7-0.5,1.1c0,0.4,0.3,0.8,0.9,1c0.6,0.2,1.4,0.5,2.3,0.7
	c0.9,0.2,1.9,0.4,2.9,0.7c1,0.3,2,0.6,2.9,1.1c0.9,0.5,1.7,1.2,2.3,2c0.6,0.8,0.9,1.9,0.9,3.2c0,1.1-0.2,2.1-0.6,2.9
	c-0.4,0.9-1,1.6-1.7,2.3c-0.8,0.6-1.7,1.1-2.8,1.4C-98.8,400-100.1,400.1-101.6,400.1"/>
<path class="st0" d="M-191.3,386.7h-11.9v-3.6h11.6h0.3V386.7z M-188.8,378h-17.1c-1.2,0-2.4,0.9-2.4,2.5v8.4c0,1.8,1.2,2.6,2.5,2.6
	l2.4,0h12.1v3.4h-14.5c0,0,0,0-0.1,0c-1.4,0-2.5,1.1-2.5,2.5c0,1.3,1,2.5,2.3,2.5c0,0,0,0,0,0h17.3c2.5,0,2.6-2.2,2.6-2.6v-16.8
	C-186.2,378.8-187.5,378-188.8,378"/>
<path class="st0" d="M-234,389.1c0-1.7,1.3-3,3-3c1.7,0,3,1.3,3,3c0,1.7-1.3,3-3,3C-232.7,392.1-234,390.7-234,389.1"/>
<path class="st0" d="M-234,397.1c0-1.7,1.3-3,3-3c1.7,0,3,1.3,3,3c0,1.7-1.3,3-3,3C-232.7,400.1-234,398.8-234,397.1"/>
<path class="st0" d="M-225.4,381c0-1.7,1.3-3,3-3c1.7,0,3,1.3,3,3c0,1.7-1.3,3-3,3C-224.1,384-225.4,382.7-225.4,381"/>
<path class="st0" d="M-225.4,389.1c0-1.7,1.3-3,3-3c1.7,0,3,1.3,3,3c0,1.7-1.3,3-3,3C-224.1,392.1-225.4,390.7-225.4,389.1"/>
<path class="st0" d="M-225.4,397.1c0-1.7,1.3-3,3-3c1.7,0,3,1.3,3,3c0,1.7-1.3,3-3,3C-224.1,400.1-225.4,398.8-225.4,397.1"/>
<path class="st0" d="M-216.8,381c0-1.7,1.3-3,3-3s3,1.3,3,3c0,1.7-1.3,3-3,3C-215.5,384-216.8,382.7-216.8,381"/>
<path class="st0" d="M-216.8,389.1c0-1.7,1.3-3,3-3c1.7,0,3,1.3,3,3c0,1.7-1.3,3-3,3C-215.5,392.1-216.8,390.7-216.8,389.1"/>
<path class="st0" d="M-216.8,397.1c0-1.7,1.3-3,3-3c1.7,0,3,1.3,3,3c0,1.7-1.3,3-3,3C-215.5,400.1-216.8,398.8-216.8,397.1"/>
<path class="st0" d="M-228,381c0-1.7-1.3-3-3-3c-1.7,0-3,1.3-3,3c0,1.7,1.3,3,3,3C-229.3,384-228,382.7-228,381"/>
</svg>
